<svg width="61" height="61" viewBox="0 0 61 61" fill="none" xmlns="http://www.w3.org/2000/svg">
<path d="M52.2355 9.5635C46.5973 3.9235 39.0898 0.833496 31.0998 0.833496C14.6375 0.833496 1.22045 14.1835 1.22045 30.5635C1.22045 35.8135 2.60739 40.9135 5.20035 45.4135L0.979248 60.8335L16.8084 56.6935C21.1803 59.0635 26.0948 60.3235 31.0998 60.3235C47.5622 60.3235 60.9792 46.9735 60.9792 30.5935C60.9792 22.6435 57.8737 15.1735 52.2355 9.5635ZM31.0998 55.2835C26.6375 55.2835 22.2657 54.0835 18.4365 51.8335L17.532 51.2935L8.12498 53.7535L10.6275 44.6335L10.0245 43.7035C7.55211 39.7735 6.22548 35.2135 6.22548 30.5635C6.22548 16.9435 17.3813 5.8435 31.0697 5.8435C37.7029 5.8435 43.9441 8.4235 48.6174 13.1035C53.321 17.7835 55.8838 23.9935 55.8838 30.5935C55.9441 44.2135 44.7883 55.2835 31.0998 55.2835ZM44.728 36.8035C43.9742 36.4435 40.2958 34.6435 39.6325 34.3735C38.939 34.1335 38.4566 34.0135 37.9441 34.7335C37.4315 35.4835 36.0144 37.1635 35.5923 37.6435C35.1702 38.1535 34.7179 38.2135 33.9642 37.8235C33.2104 37.4635 30.7983 36.6535 27.9642 34.1335C25.733 32.1535 24.2556 29.7235 23.8034 28.9735C23.3813 28.2235 23.7431 27.8335 24.135 27.4435C24.4667 27.1135 24.8888 26.5735 25.2506 26.1535C25.6124 25.7335 25.7632 25.4035 26.0044 24.9235C26.2456 24.4135 26.125 23.9935 25.9441 23.6335C25.7632 23.2735 24.2556 19.6135 23.6526 18.1135C23.0496 16.6735 22.4164 16.8535 21.9642 16.8235C21.5119 16.8235 21.0295 16.8235 20.5169 16.8235C20.0044 16.8235 19.2205 17.0035 18.527 17.7535C17.8637 18.5035 15.934 20.3035 15.934 23.9635C15.934 27.6235 18.6174 31.1635 18.9792 31.6435C19.3411 32.1535 24.2556 39.6535 31.733 42.8635C33.5119 43.6435 34.8988 44.0935 35.9843 44.4235C37.7632 44.9935 39.3913 44.9035 40.6878 44.7235C42.135 44.5135 45.1199 42.9235 45.723 41.1835C46.3561 39.4435 46.3561 37.9735 46.1451 37.6435C45.934 37.3135 45.4818 37.1635 44.728 36.8035Z" fill="#75F94C"/>
</svg>
